<mxfile host="app.diagrams.net" modified="2021-07-01T02:45:02.305Z" agent="5.0 (Macintosh; Intel Mac OS X 10_15_7) AppleWebKit/537.36 (KHTML, like Gecko) Chrome/91.0.4472.114 Safari/537.36" etag="pMWpwFvNPa9jKoftqYdM" version="14.8.2" type="github">
  <diagram id="JkqSz3OC0iguHb5306tC" name="Page-1">
    <mxGraphModel dx="2066" dy="1071" grid="1" gridSize="10" guides="1" tooltips="1" connect="1" arrows="1" fold="1" page="1" pageScale="1" pageWidth="827" pageHeight="1169" math="0" shadow="0">
      <root>
        <mxCell id="0" />
        <mxCell id="1" parent="0" />
        <mxCell id="P5wz6ZX5gCALLBjAEXnX-6" value="" style="edgeStyle=orthogonalEdgeStyle;rounded=0;orthogonalLoop=1;jettySize=auto;html=1;" parent="1" source="P5wz6ZX5gCALLBjAEXnX-1" target="P5wz6ZX5gCALLBjAEXnX-4" edge="1">
          <mxGeometry relative="1" as="geometry" />
        </mxCell>
        <mxCell id="P5wz6ZX5gCALLBjAEXnX-1" value="ridercar" style="html=1;" parent="1" vertex="1">
          <mxGeometry x="120" y="45" width="250" height="50" as="geometry" />
        </mxCell>
        <mxCell id="P5wz6ZX5gCALLBjAEXnX-2" value="driver_pad" style="html=1;" parent="1" vertex="1">
          <mxGeometry x="500" y="45" width="110" height="50" as="geometry" />
        </mxCell>
        <mxCell id="P5wz6ZX5gCALLBjAEXnX-7" value="" style="edgeStyle=orthogonalEdgeStyle;rounded=0;orthogonalLoop=1;jettySize=auto;html=1;" parent="1" source="P5wz6ZX5gCALLBjAEXnX-4" target="P5wz6ZX5gCALLBjAEXnX-5" edge="1">
          <mxGeometry relative="1" as="geometry" />
        </mxCell>
        <mxCell id="P5wz6ZX5gCALLBjAEXnX-4" value="创建出车任务&lt;br&gt;(分派车)" style="html=1;fillColor=#fff2cc;strokeColor=#d6b656;" parent="1" vertex="1">
          <mxGeometry x="120" y="145" width="110" height="50" as="geometry" />
        </mxCell>
        <mxCell id="P5wz6ZX5gCALLBjAEXnX-9" value="" style="edgeStyle=orthogonalEdgeStyle;rounded=0;orthogonalLoop=1;jettySize=auto;html=1;" parent="1" source="P5wz6ZX5gCALLBjAEXnX-5" target="P5wz6ZX5gCALLBjAEXnX-8" edge="1">
          <mxGeometry relative="1" as="geometry" />
        </mxCell>
        <mxCell id="P5wz6ZX5gCALLBjAEXnX-5" value="调度员分派安全员&lt;br&gt;(运力派人)" style="html=1;fillColor=#d5e8d4;strokeColor=#82b366;" parent="1" vertex="1">
          <mxGeometry x="120" y="245" width="110" height="50" as="geometry" />
        </mxCell>
        <mxCell id="P5wz6ZX5gCALLBjAEXnX-16" value="" style="edgeStyle=elbowEdgeStyle;rounded=0;orthogonalLoop=1;jettySize=auto;html=1;" parent="1" source="P5wz6ZX5gCALLBjAEXnX-8" target="P5wz6ZX5gCALLBjAEXnX-15" edge="1">
          <mxGeometry relative="1" as="geometry" />
        </mxCell>
        <mxCell id="-qk9JmvtxwR0tcic5spb-1" value="是" style="edgeLabel;html=1;align=center;verticalAlign=middle;resizable=0;points=[];" vertex="1" connectable="0" parent="P5wz6ZX5gCALLBjAEXnX-16">
          <mxGeometry x="-0.2698" y="3" relative="1" as="geometry">
            <mxPoint as="offset" />
          </mxGeometry>
        </mxCell>
        <mxCell id="P5wz6ZX5gCALLBjAEXnX-8" value="判断出车任务&lt;br&gt;是否包含&lt;br&gt;安全员信息" style="rhombus;whiteSpace=wrap;html=1;" parent="1" vertex="1">
          <mxGeometry x="115" y="365" width="120" height="120" as="geometry" />
        </mxCell>
        <mxCell id="P5wz6ZX5gCALLBjAEXnX-14" value="否" style="endArrow=classic;html=1;exitX=0;exitY=0.5;exitDx=0;exitDy=0;edgeStyle=elbowEdgeStyle;entryX=0;entryY=0.5;entryDx=0;entryDy=0;elbow=horizontal;" parent="1" source="P5wz6ZX5gCALLBjAEXnX-8" target="P5wz6ZX5gCALLBjAEXnX-5" edge="1">
          <mxGeometry width="50" height="50" relative="1" as="geometry">
            <mxPoint x="-10" y="455" as="sourcePoint" />
            <mxPoint x="80" y="285" as="targetPoint" />
            <Array as="points">
              <mxPoint x="60" y="345" />
            </Array>
          </mxGeometry>
        </mxCell>
        <mxCell id="-qk9JmvtxwR0tcic5spb-6" value="" style="edgeStyle=orthogonalEdgeStyle;rounded=0;orthogonalLoop=1;jettySize=auto;html=1;" edge="1" parent="1" source="P5wz6ZX5gCALLBjAEXnX-15" target="P5wz6ZX5gCALLBjAEXnX-19">
          <mxGeometry relative="1" as="geometry" />
        </mxCell>
        <mxCell id="P5wz6ZX5gCALLBjAEXnX-15" value="写入出车任务与安全员管理关系数据" style="rounded=0;whiteSpace=wrap;html=1;" parent="1" vertex="1">
          <mxGeometry x="120" y="535" width="120" height="60" as="geometry" />
        </mxCell>
        <mxCell id="-qk9JmvtxwR0tcic5spb-4" value="" style="edgeStyle=elbowEdgeStyle;rounded=0;orthogonalLoop=1;jettySize=auto;html=1;" edge="1" parent="1" source="P5wz6ZX5gCALLBjAEXnX-17" target="-qk9JmvtxwR0tcic5spb-3">
          <mxGeometry relative="1" as="geometry" />
        </mxCell>
        <mxCell id="P5wz6ZX5gCALLBjAEXnX-17" value="driver_pad 登录&lt;br&gt;" style="html=1;fillColor=#d5e8d4;strokeColor=#82b366;" parent="1" vertex="1">
          <mxGeometry x="500" y="365" width="110" height="50" as="geometry" />
        </mxCell>
        <mxCell id="P5wz6ZX5gCALLBjAEXnX-19" value="返回该安全员的&lt;br&gt;出车任务卡片数据" style="html=1;" parent="1" vertex="1">
          <mxGeometry x="122.5" y="640" width="115" height="50" as="geometry" />
        </mxCell>
        <mxCell id="P5wz6ZX5gCALLBjAEXnX-22" value="出车任务数据统计" style="html=1;" parent="1" vertex="1">
          <mxGeometry x="127.5" y="740" width="110" height="50" as="geometry" />
        </mxCell>
        <mxCell id="P5wz6ZX5gCALLBjAEXnX-24" value="IOT 出车回传&lt;br&gt;安全员数据" style="html=1;fillColor=#fff2cc;strokeColor=#d6b656;" parent="1" vertex="1">
          <mxGeometry x="500" y="740" width="110" height="50" as="geometry" />
        </mxCell>
        <mxCell id="P5wz6ZX5gCALLBjAEXnX-27" value="" style="endArrow=classic;html=1;exitX=0.5;exitY=1;exitDx=0;exitDy=0;" parent="1" source="P5wz6ZX5gCALLBjAEXnX-2" target="P5wz6ZX5gCALLBjAEXnX-17" edge="1">
          <mxGeometry width="50" height="50" relative="1" as="geometry">
            <mxPoint x="660" y="195" as="sourcePoint" />
            <mxPoint x="710" y="145" as="targetPoint" />
          </mxGeometry>
        </mxCell>
        <mxCell id="-qk9JmvtxwR0tcic5spb-3" value="安全员登录" style="html=1;" vertex="1" parent="1">
          <mxGeometry x="280" y="363.75" width="110" height="52.5" as="geometry" />
        </mxCell>
        <mxCell id="-qk9JmvtxwR0tcic5spb-5" value="" style="endArrow=classic;html=1;exitX=0.5;exitY=1;exitDx=0;exitDy=0;edgeStyle=orthogonalEdgeStyle;entryX=1;entryY=0.5;entryDx=0;entryDy=0;" edge="1" parent="1" source="-qk9JmvtxwR0tcic5spb-3" target="P5wz6ZX5gCALLBjAEXnX-15">
          <mxGeometry width="50" height="50" relative="1" as="geometry">
            <mxPoint x="300" y="590" as="sourcePoint" />
            <mxPoint x="350" y="540" as="targetPoint" />
          </mxGeometry>
        </mxCell>
        <mxCell id="-qk9JmvtxwR0tcic5spb-10" value="" style="edgeStyle=orthogonalEdgeStyle;rounded=0;orthogonalLoop=1;jettySize=auto;html=1;" edge="1" parent="1" source="-qk9JmvtxwR0tcic5spb-8" target="P5wz6ZX5gCALLBjAEXnX-24">
          <mxGeometry relative="1" as="geometry" />
        </mxCell>
        <mxCell id="-qk9JmvtxwR0tcic5spb-8" value="获取并渲染该&lt;br&gt;安全员任务卡片数据" style="html=1;fillColor=#fff2cc;strokeColor=#d6b656;" vertex="1" parent="1">
          <mxGeometry x="500" y="640" width="110" height="50" as="geometry" />
        </mxCell>
        <mxCell id="-qk9JmvtxwR0tcic5spb-9" value="" style="endArrow=classic;html=1;exitX=1;exitY=0.5;exitDx=0;exitDy=0;entryX=0;entryY=0.5;entryDx=0;entryDy=0;" edge="1" parent="1" source="P5wz6ZX5gCALLBjAEXnX-19" target="-qk9JmvtxwR0tcic5spb-8">
          <mxGeometry width="50" height="50" relative="1" as="geometry">
            <mxPoint x="340" y="740" as="sourcePoint" />
            <mxPoint x="390" y="690" as="targetPoint" />
          </mxGeometry>
        </mxCell>
        <mxCell id="-qk9JmvtxwR0tcic5spb-11" value="" style="endArrow=classic;html=1;exitX=0;exitY=0.5;exitDx=0;exitDy=0;" edge="1" parent="1" source="P5wz6ZX5gCALLBjAEXnX-24" target="P5wz6ZX5gCALLBjAEXnX-22">
          <mxGeometry width="50" height="50" relative="1" as="geometry">
            <mxPoint x="360" y="850" as="sourcePoint" />
            <mxPoint x="410" y="800" as="targetPoint" />
          </mxGeometry>
        </mxCell>
        <mxCell id="-qk9JmvtxwR0tcic5spb-12" value="" style="endArrow=classic;html=1;exitX=0.5;exitY=1;exitDx=0;exitDy=0;entryX=0.5;entryY=0;entryDx=0;entryDy=0;edgeStyle=orthogonalEdgeStyle;" edge="1" parent="1" source="P5wz6ZX5gCALLBjAEXnX-1" target="-qk9JmvtxwR0tcic5spb-3">
          <mxGeometry width="50" height="50" relative="1" as="geometry">
            <mxPoint x="370" y="320" as="sourcePoint" />
            <mxPoint x="420" y="270" as="targetPoint" />
          </mxGeometry>
        </mxCell>
        <mxCell id="-qk9JmvtxwR0tcic5spb-13" value="" style="endArrow=none;dashed=1;html=1;dashPattern=1 3;strokeWidth=2;" edge="1" parent="1">
          <mxGeometry width="50" height="50" relative="1" as="geometry">
            <mxPoint x="440" y="800" as="sourcePoint" />
            <mxPoint x="440" y="40" as="targetPoint" />
          </mxGeometry>
        </mxCell>
        <mxCell id="-qk9JmvtxwR0tcic5spb-14" value="" style="endArrow=classic;html=1;exitX=0.5;exitY=1;exitDx=0;exitDy=0;" edge="1" parent="1" source="P5wz6ZX5gCALLBjAEXnX-17">
          <mxGeometry width="50" height="50" relative="1" as="geometry">
            <mxPoint x="590" y="570" as="sourcePoint" />
            <mxPoint x="555" y="640" as="targetPoint" />
          </mxGeometry>
        </mxCell>
      </root>
    </mxGraphModel>
  </diagram>
</mxfile>
